<svg xmlns="http://www.w3.org/2000/svg" viewBox="0 0 1000 600" role="img" aria-labelledby="title desc">
<title id="title">Exposure | kVp and mAs</title><desc id="desc">Simplified tube-to-patient-to-detector diagram distinguishing tube potential and tube charge-time product.</desc>
<rect width="1000" height="600" rx="24" fill="#06121f"/>
<rect x="20" y="17" width="960" height="566" rx="18" fill="#0c1e2e" stroke="#30536b" stroke-width="3"/>
<text x="45" y="62" fill="#f3f9fc" font-size="32" font-family="Arial,Helvetica,sans-serif" font-weight="700">Exposure | kVp and mAs</text><text x="45" y="92" fill="#82cfe5" font-size="17" font-family="Arial,Helvetica,sans-serif" font-weight="500">Penetration and photon quantity</text>
<rect x="41" y="117" width="609" height="399" rx="14" fill="#092538" stroke="#325c74" stroke-width="3"/>
<rect x="670" y="117" width="284" height="399" rx="14" fill="#102c40" stroke="#325c74" stroke-width="3"/>
<rect x="78" y="186" width="120" height="65" rx="12" fill="#214b64" stroke="#9ac1d1" stroke-width="3"/><text x="104" y="222" fill="#e9f4fa" font-size="17" font-family="Arial,Helvetica,sans-serif" font-weight="500">X-ray tube</text><rect x="288" y="153" width="70" height="287" rx="12" fill="#436679" stroke="#9ec5cf" stroke-width="3"/><rect x="524" y="153" width="53" height="287" rx="12" fill="#1d5574" stroke="#7bd7e4" stroke-width="3"/><path d="M195 196 L288 182 L524 194" stroke="#f4d875" stroke-width="4" fill="none" stroke-linecap="round" stroke-linejoin="round"/><path d="M195 206 L288 198 L524 206" stroke="#f4d875" stroke-width="2" fill="none" stroke-linecap="round" stroke-linejoin="round"/><path d="M195 216 L288 214 L524 218" stroke="#f4d875" stroke-width="4" fill="none" stroke-linecap="round" stroke-linejoin="round"/><path d="M195 226 L288 230 L524 230" stroke="#f4d875" stroke-width="2" fill="none" stroke-linecap="round" stroke-linejoin="round"/><path d="M195 236 L288 246 L524 242" stroke="#f4d875" stroke-width="4" fill="none" stroke-linecap="round" stroke-linejoin="round"/><path d="M195 246 L288 262 L524 254" stroke="#f4d875" stroke-width="2" fill="none" stroke-linecap="round" stroke-linejoin="round"/><text x="285" y="137" fill="#badde5" font-size="20" font-family="Arial,Helvetica,sans-serif" font-weight="500">Patient</text><text x="504" y="137" fill="#badde5" font-size="20" font-family="Arial,Helvetica,sans-serif" font-weight="500">Detector</text><text x="92" y="482" fill="#f4dd81" font-size="20" font-family="Arial,Helvetica,sans-serif" font-weight="700">Beam energy</text><path d="M212 473 L359 473" stroke="#f4dd81" stroke-width="3" fill="none" stroke-linecap="round" /><text x="372" y="481" fill="#9ce0e8" font-size="20" font-family="Arial,Helvetica,sans-serif" font-weight="700">Photon number</text>
<text x="687" y="168" fill="#7dd8f4" font-size="21" font-family="Arial,Helvetica,sans-serif" font-weight="700">kVp</text><text x="687" y="199" fill="#b5cdda" font-size="17" font-family="Arial,Helvetica,sans-serif" font-weight="500">Changes beam energy</text><text x="687" y="267" fill="#7dd8f4" font-size="21" font-family="Arial,Helvetica,sans-serif" font-weight="700">Penetration</text><text x="687" y="298" fill="#b5cdda" font-size="17" font-family="Arial,Helvetica,sans-serif" font-weight="500">Generally rises with kVp</text><text x="687" y="363" fill="#7dd8f4" font-size="21" font-family="Arial,Helvetica,sans-serif" font-weight="700">mAs</text><text x="687" y="394" fill="#b5cdda" font-size="17" font-family="Arial,Helvetica,sans-serif" font-weight="500">Primarily photon quantity</text><text x="687" y="449" fill="#7dd8f4" font-size="21" font-family="Arial,Helvetica,sans-serif" font-weight="700">Technique</text><text x="687" y="480" fill="#b5cdda" font-size="17" font-family="Arial,Helvetica,sans-serif" font-weight="500">Balance factors and AEC</text>
<text x="46" y="555" fill="#a9c6d3" font-size="17" font-family="Arial,Helvetica,sans-serif" font-weight="500">Generated educational schematic · Not an acquired clinical image · Not to scale</text>
</svg>