<svg xmlns="http://www.w3.org/2000/svg" viewBox="0 0 900 1100">
<defs><linearGradient id="bg" x1="0" y1="0" x2="0" y2="1"><stop stop-color="#061522"/><stop offset="1" stop-color="#02080d"/></linearGradient><linearGradient id="skin" x1="0" y1="0" x2="1" y2="0"><stop stop-color="#c98968"/><stop offset=".5" stop-color="#e8b18f"/><stop offset="1" stop-color="#bd7658"/></linearGradient></defs>
<rect width="900" height="1100" rx="28" fill="url(#bg)"/><text x="42" y="70" fill="#fff" font-size="42" font-family="Arial" font-weight="700">Elbow AP</text><text x="42" y="112" fill="#63d2ff" font-size="29" font-family="Arial" font-weight="700">Light field and collimation</text>
<rect x="170" y="165" width="560" height="805" rx="22" fill="#111c24" stroke="#50697a" stroke-width="5"/><rect x="197" y="193" width="506" height="750" rx="10" fill="#172632" stroke="#2e4658" stroke-width="2"/>
<path d="M390 130 C378 245 382 360 398 500 C402 536 402 575 395 625 C388 700 382 782 390 850 L510 850 C518 780 512 698 505 625 C498 575 498 536 502 500 C518 360 522 245 510 130 Z" fill="url(#skin)" stroke="#8a513f" stroke-width="3"/><ellipse cx="450" cy="560" rx="75" ry="82" fill="url(#skin)" stroke="#8a513f" stroke-width="3"/>
<rect x="285" y="335" width="330" height="450" fill="#f4df4c" fill-opacity=".06" stroke="#f4df4c" stroke-width="6"/><line x1="450" y1="335" x2="450" y2="785" stroke="#f4df4c" stroke-width="3" stroke-dasharray="12 9"/><line x1="285" y1="560" x2="615" y2="560" stroke="#f4df4c" stroke-width="3" stroke-dasharray="12 9"/><circle cx="450" cy="560" r="27" fill="none" stroke="#f4df4c" stroke-width="5"/>
<rect x="300" y="690" width="48" height="58" rx="7" fill="#080b0e" stroke="#b6c4cf" stroke-width="2"/><text x="324" y="730" fill="#fff" font-size="34" font-family="Arial" font-weight="700" text-anchor="middle">R</text>
<g font-family="Arial" font-size="23" fill="#eaf5fb"><rect x="28" y="250" width="245" height="90" rx="14" fill="#092038" stroke="#4fbaf0"/><text x="48" y="286">Include distal one-third</text><text x="48" y="318">of humerus</text><rect x="625" y="365" width="245" height="92" rx="14" fill="#092038" stroke="#4fbaf0"/><text x="645" y="401">Tight collimation to</text><text x="645" y="433">soft-tissue margins</text><rect x="615" y="560" width="250" height="118" rx="14" fill="#092038" stroke="#4fbaf0"/><text x="635" y="596">Centre through elbow</text><text x="635" y="628">joint space, 2.5 cm</text><text x="635" y="660">distal to epicondylar midpoint</text><rect x="30" y="760" width="250" height="90" rx="14" fill="#092038" stroke="#4fbaf0"/><text x="50" y="796">Include proximal one-third</text><text x="50" y="828">of radius and ulna</text></g>
<g stroke="#63d2ff" stroke-width="3" fill="none"><path d="M273 300 L285 380"/><path d="M625 410 L615 430"/><path d="M615 615 L490 570"/><path d="M280 805 L320 760"/></g></svg>